# xmcd
#
# Track frame offsets:
#	150
#	13343
#	24181
#	35716
#	52471
#	65791
#	75826
#	90106
#	105976
#	120046
#
# Disc length: 1777 seconds
#
# Revision: 1
# Processed by: cddbd v1.5.2PL0 Copyright (c) Steve Scherf et al.
# Submitted via: audiograbber 1.83.01
#
DISCID=6e06ef0a
DTITLE=Chet Atkins - Progressive Pickin'
DYEAR=1964
DGENRE=Instrumental Country
TTITLE0=Gravy Waltz
TTITLE1=Love Letters
TTITLE2=Early Times
TTITLE3=Satan's Doll
TTITLE4=Summertime
TTITLE5=Kicky
TTITLE6=Jordu
TTITLE7=I Remember You
TTITLE8=Bluesette
TTITLE9=So Rare
EXTD=
EXTT0=
EXTT1=
EXTT2=
EXTT3=
EXTT4=
EXTT5=
EXTT6=
EXTT7=
EXTT8=
EXTT9=
PLAYORDER=
